<svg width="363" height="60" viewBox="0 0 363 60" fill="none" xmlns="http://www.w3.org/2000/svg">
<rect width="363" height="60" rx="30" fill="#0B0808" fill-opacity="0.04"/>
<rect x="1.5" y="1.5" width="360" height="57" rx="28.5" stroke="black" stroke-opacity="0.7" stroke-width="3"/>
<path d="M118.776 27.744V31.872H102.36V27.744H118.776ZM123.696 37.176H128.376V48H94.344V43.728H99.696V16.176H94.344V11.904H127.944V22.728H123.264V16.176H104.4V43.728H123.696V37.176ZM153.287 28.944C154.263 29.12 155.223 29.504 156.167 30.096C157.111 30.688 157.759 31.48 158.111 32.472L162.239 43.728H166.055V48H158.783L154.319 35.184C153.887 33.952 153.367 33.096 152.759 32.616C152.151 32.12 151.247 31.872 150.047 31.872H148.199L153.287 28.944ZM145.151 16.176V11.904H151.631C155.759 11.904 158.863 12.744 160.943 14.424C163.023 16.088 164.063 18.416 164.063 21.408C164.063 22.896 163.791 24.264 163.247 25.512C162.703 26.76 161.903 27.824 160.847 28.704C159.791 29.568 158.495 30.192 156.958 30.576V31.368L151.079 31.872H141.815V27.744H151.415C153.111 27.744 154.543 27.52 155.711 27.072C156.895 26.608 157.783 25.936 158.375 25.056C158.967 24.176 159.263 23.072 159.263 21.744C159.263 19.808 158.551 18.4 157.127 17.52C155.719 16.624 153.831 16.176 151.463 16.176H145.151ZM132.407 16.176V11.904H147.815V16.176H142.463V43.728H147.815V48H132.407V43.728H137.759V16.176H132.407ZM186.104 48.576C183.448 48.576 181 48.12 178.76 47.208C176.536 46.28 174.608 44.984 172.976 43.32C171.36 41.64 170.104 39.656 169.208 37.368C168.328 35.08 167.888 32.576 167.888 29.856C167.888 27.136 168.328 24.648 169.208 22.392C170.088 20.136 171.336 18.192 172.952 16.56C174.568 14.912 176.48 13.64 178.688 12.744C180.896 11.832 183.32 11.376 185.96 11.376C188.456 11.376 190.592 11.792 192.368 12.624C194.16 13.44 195.592 14.632 196.664 16.2C197.752 17.752 198.48 19.632 198.848 21.84H200.288L199.04 26.064C198.336 22.976 196.832 20.528 194.528 18.72C192.224 16.896 189.416 15.984 186.104 15.984C183.496 15.984 181.2 16.568 179.216 17.736C177.232 18.904 175.68 20.536 174.56 22.632C173.456 24.712 172.904 27.12 172.904 29.856C172.904 31.936 173.224 33.84 173.864 35.568C174.504 37.296 175.408 38.792 176.576 40.056C177.744 41.304 179.136 42.272 180.752 42.96C182.368 43.632 184.152 43.968 186.104 43.968C188.296 43.968 190.272 43.544 192.032 42.696C193.792 41.848 195.256 40.648 196.424 39.096C197.608 37.544 198.424 35.728 198.872 33.648L203.696 34.656C203.104 37.472 201.992 39.92 200.36 42C198.744 44.08 196.72 45.696 194.288 46.848C191.872 48 189.144 48.576 186.104 48.576ZM199.04 26.064V11.904H203.72V26.064H199.04ZM234.678 38.856C234.678 42.024 233.958 44.424 232.518 46.056C231.078 47.672 229.03 48.48 226.374 48.48C225.43 48.48 224.55 48.384 223.734 48.192C222.934 48.016 222.174 47.808 221.454 47.568C220.734 47.312 220.038 47.096 219.366 46.92C218.694 46.728 218.014 46.632 217.326 46.632C216.718 46.632 216.086 46.736 215.43 46.944C214.79 47.152 214.166 47.504 213.558 48H211.806L213.51 43.008L214.422 43.824C214.902 43.312 215.494 42.912 216.198 42.624C216.918 42.32 217.718 42.168 218.598 42.168C219.334 42.168 220.006 42.256 220.614 42.432C221.222 42.608 221.806 42.816 222.366 43.056C222.942 43.28 223.526 43.48 224.118 43.656C224.726 43.832 225.39 43.92 226.11 43.92C227.47 43.92 228.462 43.536 229.086 42.768C229.71 42 230.022 40.696 230.022 38.856H234.678ZM221.358 31.464C223.39 29.848 224.998 28.336 226.182 26.928C227.382 25.504 227.982 23.928 227.982 22.2C227.982 21.032 227.71 19.976 227.166 19.032C226.622 18.088 225.83 17.336 224.79 16.776C223.766 16.216 222.526 15.936 221.07 15.936C218.894 15.936 217.166 16.584 215.886 17.88C214.622 19.16 213.902 20.928 213.726 23.184L209.094 22.752C209.27 20.384 209.878 18.352 210.918 16.656C211.958 14.944 213.35 13.632 215.094 12.72C216.838 11.792 218.878 11.328 221.214 11.328C223.63 11.328 225.71 11.808 227.454 12.768C229.214 13.712 230.558 14.992 231.486 16.608C232.43 18.224 232.902 20.032 232.902 22.032C232.902 23.728 232.574 25.296 231.918 26.736C231.262 28.176 230.31 29.552 229.062 30.864C227.83 32.176 226.35 33.48 224.622 34.776L217.998 39.792C216.974 40.56 216.094 41.352 215.358 42.168C214.622 42.984 214.054 43.872 213.654 44.832C213.27 45.776 213.078 46.832 213.078 48H208.806V47.76C208.806 46.288 209.03 44.904 209.478 43.608C209.942 42.296 210.646 41.048 211.59 39.864C212.534 38.664 213.734 37.488 215.19 36.336L221.358 31.464ZM253.187 48.576C250.307 48.576 247.843 47.832 245.795 46.344C243.763 44.84 242.211 42.696 241.139 39.912C240.067 37.112 239.531 33.76 239.531 29.856C239.531 26 240.067 22.688 241.139 19.92C242.211 17.152 243.763 15.032 245.795 13.56C247.843 12.072 250.307 11.328 253.187 11.328C256.083 11.328 258.547 12.072 260.579 13.56C262.611 15.032 264.163 17.152 265.235 19.92C266.307 22.688 266.843 26 266.843 29.856C266.843 33.76 266.307 37.112 265.235 39.912C264.163 42.696 262.611 44.84 260.579 46.344C258.547 47.832 256.083 48.576 253.187 48.576ZM253.187 44.016C256.115 44.016 258.323 42.776 259.811 40.296C261.315 37.816 262.067 34.336 262.067 29.856C262.067 25.392 261.315 21.952 259.811 19.536C258.323 17.104 256.115 15.888 253.187 15.888C250.291 15.888 248.091 17.104 246.587 19.536C245.083 21.952 244.331 25.392 244.331 29.856C244.331 34.336 245.083 37.816 246.587 40.296C248.091 42.776 250.291 44.016 253.187 44.016Z" fill="black"/>
</svg>
