<svg width="24" height="24" viewBox="0 0 24 24" fill="none" xmlns="http://www.w3.org/2000/svg">
<path d="M9.00195 22.0005H15.002C20.002 22.0005 22.002 20.0005 22.002 15.0005V9.00049C22.002 4.00049 20.002 2.00049 15.002 2.00049H9.00195C4.00195 2.00049 2.00195 4.00049 2.00195 9.00049V15.0005C2.00195 20.0005 4.00195 22.0005 9.00195 22.0005Z" stroke="white" stroke-linecap="round" stroke-linejoin="round"/>
<path d="M11.998 15.4995C13.931 15.4995 15.498 13.9325 15.498 11.9995C15.498 10.0665 13.931 8.49951 11.998 8.49951C10.0651 8.49951 8.49805 10.0665 8.49805 11.9995C8.49805 13.9325 10.0651 15.4995 11.998 15.4995Z" stroke="white" stroke-linecap="round" stroke-linejoin="round"/>
<path d="M17.6381 7.00049H17.6496" stroke="white" stroke-width="2" stroke-linecap="round" stroke-linejoin="round"/>
</svg>
