<svg width="32" height="32" viewBox="0 0 32 32" fill="none" xmlns="http://www.w3.org/2000/svg">
<path d="M13.9368 4.06609L8.95011 10.2794C7.81678 11.6928 8.21678 13.5061 9.83011 14.3061L14.8034 16.7994C15.4568 17.1194 16.5234 17.1194 17.1768 16.7994L22.1501 14.3061C23.7634 13.4928 24.1634 11.6794 23.0301 10.2794L18.0568 4.06609C16.9368 2.63943 15.0701 2.63943 13.9368 4.06609Z" stroke="black" stroke-width="1.5" stroke-miterlimit="10" stroke-linecap="round" stroke-linejoin="round"/>
<path d="M16 3.06641V10.0797" stroke="black" stroke-width="1.5" stroke-miterlimit="10" stroke-linecap="round" stroke-linejoin="round"/>
<path d="M10.4062 14.2801L16.0063 10.0801L21.6063 14.2801" stroke="black" stroke-width="1.5" stroke-miterlimit="10" stroke-linecap="round" stroke-linejoin="round"/>
<path d="M11.6987 19.2395L13.8454 20.1995C15.2187 20.8129 16.792 20.8129 18.1787 20.1995L20.3254 19.2395C22.2454 18.3862 24.0187 20.7062 22.6854 22.3329L18.072 27.9729C16.9387 29.3595 15.0854 29.3595 13.9387 27.9729L9.33869 22.3329C7.99202 20.7062 9.76536 18.3862 11.6987 19.2395Z" stroke="black" stroke-width="1.5" stroke-miterlimit="10" stroke-linecap="round" stroke-linejoin="round"/>
</svg>
