<svg width="94" height="32" viewBox="0 0 94 32" fill="none" xmlns="http://www.w3.org/2000/svg">
<path d="M33.0686 10.605C32.2643 10.605 31.4322 10.05 31.4322 9.05102C31.4322 8.05203 32.2643 7.52479 33.0686 7.52479C33.9283 7.52479 34.7326 8.05203 34.7326 9.05102C34.7326 10.05 33.9283 10.605 33.0686 10.605ZM31.6264 12.9915H34.5385V27.1716H31.6264V12.9915Z" fill="black"/>
<path d="M50.0073 12.9915L44.3495 28.0595C43.5452 30.2518 42.63 32 39.912 32C39.08 32 38.3866 31.8613 37.8319 31.7225V29.5025H38.0815C39.3019 29.669 40.2171 29.5858 40.855 28.8088C41.3819 28.1705 41.7702 27.0606 41.2433 25.7286L36.1124 12.9915H39.2464L43.2124 23.8416H43.2679L46.9011 12.9915H50.0073Z" fill="black"/>
<path d="M59.5299 16.7099C59.5299 15.6832 58.9198 14.9062 56.9784 14.9062C54.6487 14.9062 53.7889 15.6277 53.6502 17.4592H50.8213C50.96 14.7397 52.7073 12.603 56.9784 12.603C60.1123 12.603 62.442 13.7962 62.442 17.5702V24.3133C62.442 25.3123 62.6639 25.8396 63.801 25.7286V27.1161C63.1354 27.3658 62.6639 27.4213 62.1092 27.4213C60.5561 27.4213 59.835 26.8663 59.5577 25.4788H59.5022C58.6147 26.7276 57.0061 27.5878 54.8151 27.5878C51.9307 27.5878 50.1557 25.9228 50.1557 23.5363C50.1557 20.4284 52.4577 19.4571 56.0077 18.7634C58.1987 18.3472 59.5299 18.0697 59.5299 16.7099ZM55.453 25.2846C57.8659 25.2846 59.5299 24.0913 59.5299 21.7881V19.6514C59.0584 19.9844 57.9213 20.3174 56.5624 20.5949C54.1495 21.1221 53.0956 21.8159 53.0956 23.2589C53.0956 24.5631 53.8721 25.2846 55.453 25.2846Z" fill="black"/>
<path d="M75.4609 7.33054H78.373V27.1716H75.4609V25.5343H75.4054C74.6566 26.5056 73.2699 27.5878 71.0789 27.5878C67.4457 27.5878 64.7555 24.7573 64.7555 20.0954C64.7555 15.4334 67.4457 12.603 71.0789 12.603C73.2699 12.603 74.6566 13.6297 75.4054 14.712H75.4609V7.33054ZM71.5781 25.2013C73.9633 25.2013 75.4332 23.2311 75.4332 20.0954C75.4332 16.9319 73.9633 14.9894 71.5781 14.9894C69.0265 14.9894 67.6676 17.3204 67.6676 20.0954C67.6676 22.8704 69.0265 25.2013 71.5781 25.2013Z" fill="black"/>
<path d="M89.7289 16.7099C89.7289 15.6832 89.1188 14.9062 87.1774 14.9062C84.8477 14.9062 83.9879 15.6277 83.8492 17.4592H81.0203C81.159 14.7397 82.9063 12.603 87.1774 12.603C90.3113 12.603 92.641 13.7962 92.641 17.5702V24.3133C92.641 25.3123 92.8629 25.8396 94 25.7286V27.1161C93.3344 27.3658 92.8629 27.4213 92.3082 27.4213C90.7551 27.4213 90.034 26.8663 89.7567 25.4788H89.7012C88.8137 26.7276 87.2051 27.5878 85.0141 27.5878C82.1297 27.5878 80.3547 25.9228 80.3547 23.5363C80.3547 20.4284 82.6567 19.4571 86.2067 18.7634C88.3977 18.3472 89.7289 18.0697 89.7289 16.7099ZM85.652 25.2846C88.0649 25.2846 89.7289 24.0913 89.7289 21.7881V19.6514C89.2574 19.9844 88.1203 20.3174 86.7613 20.5949C84.3485 21.1221 83.2946 21.8159 83.2946 23.2589C83.2946 24.5631 84.0711 25.2846 85.652 25.2846Z" fill="black"/>
<path d="M6.06701 28.7386C3.56461 26.7798 1.69728 24.0107 0.732657 20.8282C-0.231968 17.6457 -0.244365 14.2131 0.697241 11.0225C1.63885 7.83182 3.48612 5.0469 5.97429 3.06685C8.46247 1.0868 11.4638 0.0132679 14.5482 0.000122185C17.6325 -0.0130235 20.6415 1.03489 23.1439 2.99367C25.6463 4.95245 27.5136 7.72154 28.4783 10.9041C29.4429 14.0866 29.4553 17.5192 28.5137 20.7098C27.5721 23.9004 25.7248 26.6854 23.2366 28.6654L21.3378 25.8496C23.2785 24.3051 24.7194 22.1329 25.4539 19.6442C26.1883 17.1555 26.1787 14.4781 25.4262 11.9957C24.6738 9.51335 23.2173 7.35346 21.2655 5.82561C19.3136 4.29776 16.9666 3.48039 14.5608 3.49065C12.155 3.5009 9.81393 4.33825 7.87315 5.88269C5.93237 7.42713 4.4915 9.59937 3.75705 12.0881C3.0226 14.5768 3.03227 17.2542 3.78467 19.7365C4.53708 22.2189 5.9936 24.3788 7.94547 25.9067L6.06701 28.7386Z" fill="black"/>
<path d="M23.3978 14.8872C23.3978 15.987 19.46 16.8785 14.6025 16.8785C9.7449 16.8785 5.80708 15.987 5.80708 14.8872C5.80708 13.7875 9.7449 12.8959 14.6025 12.8959C19.46 12.8959 23.3978 13.7875 23.3978 14.8872Z" fill="black"/>
</svg>
